<svg xmlns="http://www.w3.org/2000/svg" viewBox="0 0 48 48" fill="none">
  <defs>
    <radialGradient id="bgGrad" cx="45%" cy="40%" r="65%">
      <stop offset="0%" stop-color="#7B22C0"/>
      <stop offset="50%" stop-color="#510D8A"/>
      <stop offset="100%" stop-color="#2A0050"/>
    </radialGradient>
    <linearGradient id="ringGrad" x1="0%" y1="0%" x2="100%" y2="100%">
      <stop offset="0%" stop-color="#C050E8"/>
      <stop offset="100%" stop-color="#8B20C0"/>
    </linearGradient>
    <filter id="waveGlow" x="-40%" y="-120%" width="180%" height="340%">
      <feGaussianBlur stdDeviation="1.2" result="blur1"/>
      <feGaussianBlur stdDeviation="2.5" result="blur2"/>
      <feMerge>
        <feMergeNode in="blur2"/>
        <feMergeNode in="blur1"/>
        <feMergeNode in="SourceGraphic"/>
      </feMerge>
    </filter>
    <filter id="traceGlow" x="-20%" y="-20%" width="140%" height="140%">
      <feGaussianBlur stdDeviation="0.5" result="blur"/>
      <feMerge>
        <feMergeNode in="blur"/>
        <feMergeNode in="SourceGraphic"/>
      </feMerge>
    </filter>
    <linearGradient id="waveGrad" x1="0%" y1="0%" x2="100%" y2="0%">
      <stop offset="0%" stop-color="#E060FF" stop-opacity="0.7"/>
      <stop offset="40%" stop-color="#FF80FF"/>
      <stop offset="50%" stop-color="#FFFFFF"/>
      <stop offset="60%" stop-color="#FF80FF"/>
      <stop offset="100%" stop-color="#E060FF" stop-opacity="0.7"/>
    </linearGradient>
  </defs>

  <!-- Circle background -->
  <circle cx="24" cy="24" r="22" fill="url(#bgGrad)"/>

  <!-- Outer ring -->
  <circle cx="24" cy="24" r="20" stroke="url(#ringGrad)" stroke-width="0.8" fill="none" opacity="0.6"/>

  <!-- Circuit traces on the left -->
  <g filter="url(#traceGlow)" stroke="#C050E8" stroke-width="0.9" fill="none" opacity="0.9">
    <!-- Horizontal backbone -->
    <line x1="15.5" y1="24" x2="10" y2="24"/>
    <circle cx="10" cy="24" r="1.2" fill="#C050E8" stroke="none"/>

    <!-- Top branch -->
    <polyline points="10,24 10,17 6,17"/>
    <circle cx="6" cy="17" r="1.6" fill="none" stroke="#C050E8" stroke-width="0.9"/>
    <circle cx="6" cy="17" r="0.6" fill="#D870FF" stroke="none"/>

    <!-- Top sub-branch -->
    <polyline points="10,20.5 7.5,20.5 7.5,17"/>
    <circle cx="10" cy="20.5" r="0.9" fill="#C050E8" stroke="none"/>

    <!-- Bottom branch -->
    <polyline points="10,24 10,31 6,31"/>
    <circle cx="6" cy="31" r="1.6" fill="none" stroke="#C050E8" stroke-width="0.9"/>
    <circle cx="6" cy="31" r="0.6" fill="#D870FF" stroke="none"/>

    <!-- Bottom sub-branch -->
    <polyline points="10,27.5 7.5,27.5 7.5,31"/>
    <circle cx="10" cy="27.5" r="0.9" fill="#C050E8" stroke="none"/>
  </g>

  <!-- ECG waveform -->
  <g filter="url(#waveGlow)">
    <polyline
      points="15.5,24 19,24 21.3,13 23.6,34.5 25.9,22.5 27.5,26 29,24 34,24"
      stroke="url(#waveGrad)"
      stroke-width="1.4"
      fill="none"
      stroke-linecap="round"
      stroke-linejoin="round"
    />
  </g>

  <!-- Bright spike core -->
  <g opacity="0.55">
    <polyline
      points="20.5,17 21.3,13 23.6,34.5 25,24"
      stroke="#FFFFFF"
      stroke-width="0.7"
      fill="none"
      stroke-linecap="round"
      stroke-linejoin="round"
    />
  </g>
</svg>
